<svg width="40" height="39" viewBox="0 0 40 39" fill="none" xmlns="http://www.w3.org/2000/svg">
    <path d="M1.96365 17.943C1.65846 21.4429 2.40426 24.9553 4.10674 28.036C5.80921 31.1166 8.39191 33.6272 11.5282 35.2502C14.6645 36.8732 18.2135 37.5358 21.7265 37.1541C25.2395 36.7725 28.5587 35.3637 31.2643 33.106C33.9699 30.8482 35.9404 27.843 36.9266 24.4702C37.9129 21.0974 37.8706 17.5086 36.805 14.1576C35.7395 10.8066 33.6986 7.8439 30.9405 5.64416C28.1824 3.44442 24.8308 2.10642 21.3097 1.7994C16.5881 1.38768 11.8972 2.85723 8.26912 5.88474C4.64103 8.91225 2.37288 13.2497 1.96365 17.943Z" fill="url(#paint0_radial_2_5139)"/>
    <path opacity="0.03" d="M11.748 18.7961C11.6105 20.3725 11.9464 21.9544 12.7132 23.342C13.4801 24.7295 14.6433 25.8603 16.0559 26.5914C17.4685 27.3224 19.067 27.6208 20.6493 27.4489C22.2316 27.277 23.7266 26.6425 24.9452 25.6256C26.1638 24.6087 27.0513 23.2551 27.4956 21.736C27.9398 20.2168 27.9207 18.6004 27.4408 17.0911C26.9609 15.5818 26.0417 14.2474 24.7994 13.2566C23.5571 12.2658 22.0475 11.6632 20.4616 11.5249C18.3349 11.3394 16.2221 12.0013 14.588 13.3649C12.9539 14.7285 11.9323 16.6822 11.748 18.7961Z" fill="#FFE500"/>
    <path opacity="0.03" d="M18.5622 33.3068C10.8882 32.6376 5.20631 25.9116 5.87144 18.2837C6.53656 10.6559 13.2968 5.01471 20.9708 5.68386C28.6448 6.35301 34.3267 13.0791 33.6616 20.7069C32.9964 28.3348 26.2362 33.9759 18.5622 33.3068Z" fill="#FFE500"/>
    <path d="M19.6337 21.0202C18.7863 20.9463 18.159 20.2037 18.2324 19.3614C18.3058 18.5192 19.0523 17.8963 19.8996 17.9702C20.747 18.0441 21.3743 18.7867 21.3009 19.629C21.2275 20.4712 20.481 21.0941 19.6337 21.0202Z" fill="#FFFFF7"/>
    <defs>
    <radialGradient id="paint0_radial_2_5139" cx="0" cy="0" r="1" gradientUnits="userSpaceOnUse" gradientTransform="translate(-4077.89 1724.83) rotate(-175.017) scale(219.808 218.486)">
    <stop stop-color="#FFE500"/>
    <stop offset="0.09" stop-color="#FFE70F" stop-opacity="0.78"/>
    <stop offset="0.2" stop-color="#FFE81E" stop-opacity="0.58"/>
    <stop offset="0.3" stop-color="#FFE92B" stop-opacity="0.4"/>
    <stop offset="0.4" stop-color="#FFEA35" stop-opacity="0.26"/>
    <stop offset="0.51" stop-color="#FFEB3D" stop-opacity="0.14"/>
    <stop offset="0.61" stop-color="#FFEC42" stop-opacity="0.06"/>
    <stop offset="0.71" stop-color="#FFEC46" stop-opacity="0.02"/>
    <stop offset="0.81" stop-color="#FFEC47" stop-opacity="0"/>
    </radialGradient>
    </defs>
    </svg>
    