<svg width="82" height="81" viewBox="0 0 82 81" fill="none" xmlns="http://www.w3.org/2000/svg">
    <path d="M37.7161 77.6531C17.1241 75.8576 1.87785 57.8093 3.6626 37.3412C5.44735 16.8731 23.5873 1.736 44.1792 3.53155C64.7712 5.3271 80.0175 23.3754 78.2328 43.8435C76.448 64.3116 58.3081 79.4487 37.7161 77.6531Z" fill="url(#paint0_radial_2_5162)"/>
    <path opacity="0.03" d="M39.4924 57.2813C30.2196 56.4728 23.3541 48.3454 24.1578 39.1284C24.9615 29.9114 33.1301 23.0951 42.4028 23.9036C51.6756 24.7122 58.5412 32.8395 57.7375 42.0565C56.9338 51.2735 48.7652 58.0899 39.4924 57.2813Z" fill="#FFE500"/>
    <path opacity="0.03" d="M38.4264 69.5104C22.3589 68.1093 10.4626 54.0266 11.8552 38.0558C13.2478 22.085 27.4019 10.2738 43.4694 11.6748C59.5369 13.0759 71.4333 27.1585 70.0407 43.1294C68.6481 59.1002 54.4939 70.9114 38.4264 69.5104Z" fill="#FFE500"/>
    <path opacity="0.03" d="M37.7161 77.6531C17.1241 75.8576 1.87785 57.8093 3.6626 37.3412C5.44735 16.8731 23.5873 1.736 44.1792 3.53155C64.7712 5.3271 80.0175 23.3754 78.2328 43.8435C76.448 64.3116 58.3081 79.4487 37.7161 77.6531Z" fill="#FFE500"/>
    <path d="M31.8582 39.7999L40.3423 39.8439L41.7357 31.5575L41.655 39.8424L50.0376 41.3851L41.4238 41.1559L40.1601 49.6275L40.1929 41.2225L31.8582 39.7999Z" fill="#FFFC83"/>
    <path d="M36.0116 44.6848C40.9096 43.3723 40.5044 43.337 45.1013 45.4774C43.7734 40.6358 43.7408 41.0098 45.8891 36.4424C40.9886 37.7836 41.3939 37.8189 36.7994 35.6498C38.1248 40.5201 38.1574 40.1461 36.0116 44.6848Z" fill="#FFFFF7"/>
    <defs>
    <radialGradient id="paint0_radial_2_5162" cx="0" cy="0" r="1" gradientUnits="userSpaceOnUse" gradientTransform="translate(-5446.01 13112.7) rotate(140.156) scale(961.212 961.195)">
    <stop stop-color="#FFE500"/>
    <stop offset="0.09" stop-color="#FFE70F" stop-opacity="0.78"/>
    <stop offset="0.2" stop-color="#FFE81E" stop-opacity="0.58"/>
    <stop offset="0.3" stop-color="#FFE92B" stop-opacity="0.4"/>
    <stop offset="0.4" stop-color="#FFEA35" stop-opacity="0.26"/>
    <stop offset="0.51" stop-color="#FFEB3D" stop-opacity="0.14"/>
    <stop offset="0.61" stop-color="#FFEC42" stop-opacity="0.06"/>
    <stop offset="0.71" stop-color="#FFEC46" stop-opacity="0.02"/>
    <stop offset="0.81" stop-color="#FFEC47" stop-opacity="0"/>
    </radialGradient>
    </defs>
    </svg>
    