<svg width="1122" height="751" viewBox="0 0 1122 851" fill="none" xmlns="http://www.w3.org/2000/svg">
    <path fill-rule="evenodd" clip-rule="evenodd" d="M251.984 799.342C252.043 799.166 252.297 799.179 252.338 799.361L255.29 812.675C255.303 812.734 255.345 812.783 255.402 812.806L266.823 817.351C266.989 817.417 266.972 817.657 266.799 817.7L253.941 820.891C253.882 820.905 253.834 820.948 253.813 821.005L249.397 832.869C249.331 833.045 249.076 833.022 249.044 832.837L246.776 820.007C246.765 819.945 246.723 819.893 246.665 819.87L234.554 814.882C234.387 814.813 234.409 814.569 234.586 814.532L247.718 811.789C247.782 811.775 247.834 811.729 247.855 811.667L251.984 799.342Z" fill="#F08922"/>
    <path fill-rule="evenodd" clip-rule="evenodd" d="M190.524 578.366C190.604 578.078 191.01 578.071 191.1 578.355L193.773 586.806C193.803 586.9 193.878 586.974 193.973 587.002L201.607 589.286C201.887 589.37 201.895 589.763 201.618 589.857L193.445 592.647C193.352 592.679 193.28 592.755 193.253 592.851L191.065 600.743C190.985 601.031 190.58 601.038 190.49 600.754L187.816 592.303C187.786 592.209 187.711 592.135 187.616 592.107L179.982 589.823C179.702 589.739 179.695 589.346 179.971 589.252L188.144 586.462C188.238 586.43 188.31 586.354 188.336 586.258L190.524 578.366Z" fill="white"/>
    <path fill-rule="evenodd" clip-rule="evenodd" d="M1093.52 23.3656C1093.6 23.0779 1094.01 23.0706 1094.1 23.3553L1096.77 31.8055C1096.8 31.9002 1096.88 31.974 1096.97 32.0024L1104.61 34.2859C1104.89 34.3696 1104.89 34.7629 1104.62 34.8573L1096.45 37.6469C1096.35 37.6789 1096.28 37.7551 1096.25 37.8506L1094.06 45.7434C1093.98 46.0311 1093.58 46.0384 1093.49 45.7538L1090.82 37.3035C1090.79 37.2088 1090.71 37.135 1090.62 37.1066L1082.98 34.8231C1082.7 34.7394 1082.69 34.3461 1082.97 34.2518L1091.14 31.4622C1091.24 31.4302 1091.31 31.3539 1091.34 31.2585L1093.52 23.3656Z" fill="white"/>
    <path fill-rule="evenodd" clip-rule="evenodd" d="M17.0062 4.80923C17.086 4.52154 17.4913 4.51425 17.5813 4.79889L19.0443 9.4229C19.0743 9.51761 19.1492 9.59135 19.2444 9.61982L23.4048 10.8643C23.6845 10.9479 23.692 11.3413 23.4157 11.4356L18.9268 12.9678C18.833 12.9998 18.761 13.0761 18.7346 13.1716L17.5465 17.4565C17.4667 17.7442 17.0614 17.7515 16.9714 17.4668L15.5084 12.8428C15.4784 12.7481 15.4035 12.6744 15.3083 12.6459L11.1479 11.4014C10.8682 11.3178 10.8607 10.9244 11.137 10.8301L15.6259 9.29794C15.7197 9.26593 15.7917 9.18967 15.8181 9.09418L17.0062 4.80923Z" fill="#27AE60"/>
    <path fill-rule="evenodd" clip-rule="evenodd" d="M318.595 190.095C318.675 189.807 319.081 189.8 319.171 190.085L321.222 196.614C321.251 196.709 321.326 196.783 321.421 196.812L327.275 198.575C327.553 198.659 327.561 199.052 327.286 199.146L321.001 201.307C320.908 201.339 320.836 201.416 320.81 201.511L319.136 207.592C319.057 207.881 318.65 207.888 318.561 207.603L316.51 201.073C316.48 200.979 316.405 200.905 316.31 200.876L310.457 199.112C310.178 199.028 310.17 198.636 310.446 198.541L316.73 196.381C316.824 196.348 316.895 196.272 316.922 196.176L318.595 190.095Z" fill="#1B97DB"/>
    <path fill-rule="evenodd" clip-rule="evenodd" d="M769.201 117.527C769.281 117.239 769.686 117.232 769.776 117.516L772.521 126.204C772.551 126.299 772.626 126.373 772.721 126.401L780.561 128.75C780.841 128.833 780.848 129.227 780.572 129.321L772.181 132.189C772.087 132.221 772.015 132.297 771.989 132.393L769.742 140.51C769.662 140.798 769.256 140.805 769.166 140.52L766.422 131.832C766.392 131.737 766.317 131.664 766.222 131.635L758.382 129.287C758.102 129.203 758.095 128.81 758.371 128.716L766.762 125.847C766.856 125.815 766.928 125.739 766.954 125.644L769.201 117.527Z" fill="#F49B0B"/>
    </svg>
    